<?xml version="1.0" encoding="UTF-8" standalone="no"?><!DOCTYPE svg PUBLIC "-//W3C//DTD SVG 1.1//EN" "http://www.w3.org/Graphics/SVG/1.1/DTD/svg11.dtd"><svg width="100%" height="100%" viewBox="0 0 1280 1280" version="1.1" xmlns="http://www.w3.org/2000/svg" xmlns:xlink="http://www.w3.org/1999/xlink" xml:space="preserve" style="fill-rule:evenodd;clip-rule:evenodd;stroke-linejoin:round;stroke-miterlimit:1.41421;"><path d="M640,1279.15c-352.898,0 -640,-286.718 -640,-639.147c0,-352.424 287.102,-639.147 640,-639.147c352.898,0 640,286.723 640,639.147c0,352.429 -287.102,639.147 -640,639.147Zm539.743,-551.656c-18.702,-5.896 -169.201,-50.72 -340.507,-23.335c71.5,196.217 100.601,356.029 106.202,389.24c122.64,-82.814 209.943,-214.003 234.305,-365.905Zm-326.209,415.884c-8.129,-47.898 -39.866,-214.826 -116.618,-413.995c-1.197,0.407 -2.403,0.795 -3.605,1.215c-308.333,107.297 -419.015,320.84 -428.855,340.923c92.685,72.178 209.17,115.247 335.544,115.247c75.725,0 147.9,-15.468 213.534,-43.39Zm-619.662,-137.519c12.386,-21.168 162.412,-269.244 444.346,-360.255c7.124,-2.3 14.311,-4.462 21.543,-6.494c-13.726,-31.013 -28.668,-62.062 -44.319,-92.65c-272.996,81.594 -537.903,78.186 -561.823,77.695c-0.17,5.543 -0.281,11.1 -0.281,16.683c0,140.213 53.226,268.239 140.534,365.021Zm-128.983,-476.838c24.451,0.327 249.67,1.3 505.38,-66.514c-90.582,-160.795 -188.266,-295.991 -202.68,-315.73c-152.933,72.04 -267.252,212.842 -302.7,382.244Zm407.008,-418.939c15.107,20.208 114.395,155.234 203.971,319.594c194.386,-72.76 276.677,-183.219 286.508,-197.204c-96.536,-85.53 -223.477,-137.563 -362.376,-137.563c-44.105,0 -86.995,5.279 -128.103,15.173Zm551.25,185.523c-11.52,15.567 -103.129,132.842 -305.246,215.25c12.717,26.006 24.915,52.453 36.265,79.075c4.025,9.439 7.942,18.828 11.775,28.177c181.896,-22.843 362.631,13.766 380.654,17.572c-1.206,-128.857 -47.312,-247.178 -123.448,-340.074Z"/></svg>