<?xml version="1.0" encoding="UTF-8" standalone="no"?><!DOCTYPE svg PUBLIC "-//W3C//DTD SVG 1.1//EN" "http://www.w3.org/Graphics/SVG/1.1/DTD/svg11.dtd"><svg width="100%" height="100%" viewBox="0 0 1280 1280" version="1.1" xmlns="http://www.w3.org/2000/svg" xmlns:xlink="http://www.w3.org/1999/xlink" xml:space="preserve" style="fill-rule:evenodd;clip-rule:evenodd;stroke-linejoin:round;stroke-miterlimit:1.41421;"><g><path d="M640.005,15.803c-353.419,0 -640.005,286.523 -640.005,640.005c0,282.761 183.381,522.662 437.675,607.289c31.985,5.924 43.728,-13.884 43.728,-30.788c0,-15.261 -0.593,-65.677 -0.869,-119.156c-178.05,38.716 -215.621,-75.512 -215.621,-75.512c-29.113,-73.965 -71.061,-93.646 -71.061,-93.646c-58.068,-39.722 4.377,-38.906 4.377,-38.906c64.268,4.515 98.108,65.963 98.108,65.963c57.082,97.832 149.721,69.546 186.242,53.193c5.744,-41.354 22.331,-69.599 40.634,-85.581c-142.154,-16.173 -291.589,-71.061 -291.589,-316.293c0,-69.864 25.001,-126.967 65.942,-171.787c-6.645,-16.12 -28.551,-81.214 6.2,-169.37c0,0 53.744,-17.19 176.047,65.614c51.052,-14.181 105.802,-21.292 160.192,-21.546c54.39,0.254 109.183,7.365 160.33,21.546c122.155,-82.804 175.825,-65.614 175.825,-65.614c34.836,88.156 12.919,153.25 6.274,169.37c41.036,44.82 65.868,101.923 65.868,171.787c0,245.825 -149.721,299.94 -292.236,315.784c22.956,19.861 43.411,58.81 43.411,118.52c0,85.634 -0.742,154.554 -0.742,175.634c0,17.031 11.52,36.988 43.961,30.703c254.156,-84.722 437.304,-324.528 437.304,-607.204c0,-353.482 -286.544,-640.005 -639.995,-640.005Z"/><path d="M242.402,934.7c-1.409,3.191 -6.411,4.144 -10.969,1.961c-4.642,-2.099 -7.249,-6.433 -5.744,-9.623c1.378,-3.264 6.391,-4.176 11.022,-1.993c4.653,2.088 7.302,6.465 5.691,9.655Z" style="fill-rule:nonzero;"/><path d="M268.326,963.623c-3.053,2.819 -9.02,1.505 -13.068,-2.968c-4.186,-4.461 -4.97,-10.428 -1.876,-13.3c3.148,-2.819 8.934,-1.495 13.131,2.967c4.187,4.515 5.003,10.429 1.813,13.301Z" style="fill-rule:nonzero;"/><path d="M293.56,1000.47c-3.921,2.734 -10.333,0.18 -14.297,-5.511c-3.921,-5.691 -3.921,-12.527 0.085,-15.262c3.974,-2.734 10.291,-0.265 14.307,5.374c3.911,5.786 3.911,12.612 -0.095,15.399Z" style="fill-rule:nonzero;"/><path d="M328.131,1036.08c-3.507,3.868 -10.979,2.83 -16.448,-2.448c-5.596,-5.161 -7.154,-12.485 -3.635,-16.353c3.55,-3.879 11.064,-2.788 16.576,2.448c5.553,5.151 7.249,12.527 3.507,16.353Z" style="fill-rule:nonzero;"/><path d="M375.823,1056.76c-1.547,5.013 -8.743,7.292 -15.992,5.162c-7.239,-2.194 -11.976,-8.066 -10.514,-13.132c1.505,-5.045 8.733,-7.419 16.035,-5.14c7.228,2.183 11.976,8.012 10.471,13.11Z" style="fill-rule:nonzero;"/><path d="M428.2,1060.6c0.18,5.278 -5.967,9.655 -13.577,9.75c-7.651,0.169 -13.841,-4.101 -13.926,-9.294c0,-5.332 6.01,-9.666 13.661,-9.793c7.61,-0.149 13.842,4.09 13.842,9.337Z" style="fill-rule:nonzero;"/><path d="M476.941,1052.3c0.911,5.151 -4.377,10.44 -11.934,11.849c-7.429,1.357 -14.307,-1.823 -15.251,-6.931c-0.921,-5.278 4.463,-10.567 11.881,-11.934c7.567,-1.314 14.339,1.781 15.304,7.016Z" style="fill-rule:nonzero;"/></g></svg>