<?xml version="1.0" encoding="UTF-8" standalone="no"?><!DOCTYPE svg PUBLIC "-//W3C//DTD SVG 1.1//EN" "http://www.w3.org/Graphics/SVG/1.1/DTD/svg11.dtd"><svg width="100%" height="100%" viewBox="0 0 1280 1280" version="1.1" xmlns="http://www.w3.org/2000/svg" xmlns:xlink="http://www.w3.org/1999/xlink" xml:space="preserve" style="fill-rule:evenodd;clip-rule:evenodd;stroke-linejoin:round;stroke-miterlimit:1.41421;"><path d="M640.001,0c-173.815,0 -195.609,0.737 -263.872,3.851c-68.121,3.11 -114.645,13.927 -155.356,29.749c-42.086,16.356 -77.777,38.24 -113.356,73.819c-35.58,35.58 -57.463,71.271 -73.819,113.357c-15.822,40.708 -26.64,87.232 -29.749,155.353c-3.115,68.263 -3.849,90.057 -3.849,263.872c0,173.813 0.734,195.607 3.849,263.87c3.109,68.121 13.927,114.645 29.749,155.353c16.356,42.086 38.239,77.777 73.819,113.359c35.579,35.58 71.27,57.463 113.356,73.819c40.711,15.82 87.235,26.64 155.356,29.747c68.263,3.114 90.057,3.851 263.872,3.851c173.813,0 195.607,-0.737 263.87,-3.851c68.121,-3.107 114.645,-13.927 155.353,-29.747c42.086,-16.356 77.777,-38.239 113.359,-73.819c35.58,-35.582 57.463,-71.273 73.819,-113.359c15.82,-40.708 26.64,-87.232 29.747,-155.353c3.114,-68.263 3.851,-90.057 3.851,-263.87c0,-173.815 -0.737,-195.609 -3.851,-263.872c-3.107,-68.121 -13.927,-114.645 -29.747,-155.353c-16.356,-42.086 -38.239,-77.777 -73.819,-113.357c-35.582,-35.579 -71.273,-57.463 -113.359,-73.819c-40.708,-15.822 -87.232,-26.639 -155.353,-29.749c-68.263,-3.114 -90.057,-3.851 -263.87,-3.851Zm0,115.318c170.886,0 191.128,0.65 258.614,3.729c62.399,2.848 96.287,13.274 118.839,22.036c29.873,11.61 51.193,25.481 73.587,47.876c22.397,22.394 36.266,43.716 47.876,73.587c8.764,22.552 19.191,56.44 22.036,118.839c3.079,67.486 3.732,87.728 3.732,258.616c0,170.886 -0.653,191.129 -3.732,258.614c-2.845,62.399 -13.272,96.287 -22.036,118.839c-11.61,29.873 -25.479,51.193 -47.876,73.587c-22.394,22.397 -43.714,36.266 -73.587,47.876c-22.552,8.764 -56.44,19.191 -118.839,22.036c-67.475,3.079 -87.715,3.732 -258.614,3.732c-170.901,0 -191.138,-0.653 -258.616,-3.732c-62.399,-2.845 -96.287,-13.272 -118.839,-22.036c-29.873,-11.61 -51.193,-25.479 -73.59,-47.876c-22.394,-22.394 -36.265,-43.714 -47.873,-73.587c-8.764,-22.552 -19.191,-56.44 -22.038,-118.839c-3.08,-67.485 -3.73,-87.728 -3.73,-258.614c0,-170.888 0.65,-191.13 3.73,-258.616c2.847,-62.399 13.274,-96.287 22.038,-118.839c11.608,-29.871 25.479,-51.193 47.873,-73.587c22.397,-22.395 43.717,-36.266 73.59,-47.876c22.552,-8.762 56.44,-19.188 118.839,-22.036c67.485,-3.079 87.728,-3.729 258.616,-3.729Z" style="fill:#030404;fill-rule:nonzero;"/><path d="M640.001,853.333c-117.822,0 -213.334,-95.512 -213.334,-213.332c0,-117.822 95.512,-213.334 213.334,-213.334c117.82,0 213.332,95.512 213.332,213.334c0,117.82 -95.512,213.332 -213.332,213.332Zm0,-541.981c-181.51,0 -328.649,147.139 -328.649,328.649c0,181.508 147.139,328.647 328.649,328.647c181.508,0 328.647,-147.139 328.647,-328.647c0,-181.51 -147.139,-328.649 -328.647,-328.649Z" style="fill:#030404;fill-rule:nonzero;"/><path d="M1058.43,298.367c0,42.416 -34.385,76.799 -76.801,76.799c-42.414,0 -76.799,-34.383 -76.799,-76.799c0,-42.416 34.385,-76.799 76.799,-76.799c42.416,0 76.801,34.383 76.801,76.799Z" style="fill:#030404;fill-rule:nonzero;"/></svg>