<?xml version="1.0" encoding="UTF-8" standalone="no"?><!DOCTYPE svg PUBLIC "-//W3C//DTD SVG 1.1//EN" "http://www.w3.org/Graphics/SVG/1.1/DTD/svg11.dtd"><svg width="100%" height="100%" viewBox="0 0 1280 1280" version="1.1" xmlns="http://www.w3.org/2000/svg" xmlns:xlink="http://www.w3.org/1999/xlink" xml:space="preserve" style="fill-rule:evenodd;clip-rule:evenodd;stroke-linejoin:round;stroke-miterlimit:1.41421;"><path d="M402.55,1160.13c483.041,0 747.192,-400.184 747.192,-747.192c0,-11.372 -0.23,-22.692 -0.753,-33.951c51.272,-37.064 95.847,-83.313 131.011,-135.972c-47.058,20.9 -97.695,34.99 -150.815,41.339c54.221,-32.502 95.847,-83.947 115.477,-145.265c-50.75,30.08 -106.931,51.958 -166.748,63.739c-47.919,-51.041 -116.168,-82.964 -191.688,-82.964c-145.039,0 -262.651,117.606 -262.651,262.589c0,20.614 2.309,40.648 6.81,59.879c-218.251,-10.972 -411.787,-115.477 -541.297,-274.376c-22.574,38.799 -35.569,83.896 -35.569,131.989c0,91.115 46.367,171.545 116.864,218.598c-43.074,-1.326 -83.548,-13.164 -118.942,-32.855c-0.057,1.096 -0.057,2.196 -0.057,3.348c0,127.202 90.537,233.38 210.688,257.46c-22.052,6 -45.266,9.236 -69.227,9.236c-16.917,0 -33.372,-1.674 -49.367,-4.736c33.433,104.335 130.375,180.26 245.33,182.4c-89.897,70.436 -203.121,112.41 -326.165,112.41c-21.191,0 -42.091,-1.209 -62.643,-3.636c116.224,74.481 254.223,117.96 402.55,117.96Z" style="fill-rule:nonzero;"/></svg>